####
#
# OBJ File Generated by Meshlab
#
####
# Object 184_C99_M_0.obj
#
# Vertices: 126
# Faces: 185
#
####
vn -0.0599883687600807 -1.5705756338597643 0.0022316999224964
v -30.9116000000000000 109.4240000000000066 7.6239600000000003
vn -0.0944860834592875 -3.1453800381451340 0.0260479393777287
v -30.9109000000000016 109.4230000000000018 6.8272300000000001
vn -0.1136400611058018 -3.1465837939334138 0.0036988171788471
v -32.1794999999999973 109.4599999999999937 1.9601700000000000
vn -0.1018886957677743 -3.1325417283969270 0.0055133499620263
v -32.1813000000000002 109.4590000000000032 3.3116300000000001
vn -0.1014486430475949 -3.1335504220167469 0.0009500348201859
v -30.9056999999999995 109.4140000000000015 1.8213600000000001
vn -0.0440314631235674 -1.5865008733053585 0.0161165953566856
v -32.1694999999999993 109.4659999999999940 7.6239600000000003
vn -0.1065293972533031 -3.1303480737084053 0.0067131535326602
v -30.9041999999999994 109.4110000000000014 5.6995600000000000
vn -0.0915160644635620 -3.1281384708578037 0.0254702700141194
v -32.1831999999999994 109.4579999999999984 6.8024500000000003
vn -0.1204538899503285 -3.1401525773858854 0.0124806626987239
v -32.1963000000000008 109.4500000000000028 -5.2872000000000003
vn -0.1234419195393907 -3.1357566232118632 0.0065451265690617
v -30.8966999999999992 109.3979999999999961 -5.4908099999999997
vn -0.2299376853625073 -6.2789640565909561 0.0094851424630041
v -31.2943564966444008 109.4131134130665686 -6.1036375417851376
vn -0.0803496395124731 -3.1474241893432482 -0.0086346836561869
v -30.9096000000000011 109.4210000000000065 0.8215500000000000
vn -0.0932522990970720 -3.1396371637900784 0.0009573513320876
v -32.1866500000000002 109.4559999999999889 0.1583127000000004
vn -0.2150046948916914 -6.2794719086467481 -0.0159773725185388
v -31.3410984782290463 109.4271164026639838 5.4039318338260891
vn -0.1021018804655654 -3.1343825447510376 -0.0006499170310110
v -32.1863999999999990 109.4560000000000031 -0.4419010000000000
vn -0.0994394465035306 -3.1392079574668710 0.0108284006959802
v -30.9066125000000014 109.4154999999999944 -0.3425838749999999
vn -0.0993011937012693 -3.1314734932096826 0.0024915084020966
v -32.1878000000000029 109.4549999999999983 5.7744799999999996
vn -0.1046290616403187 -3.1536483053088236 -0.0020228845990464
v -32.1777000000000015 109.4609999999999985 3.8931100000000001
vn -0.0993468995512862 -3.1452175431874188 0.0002402028110908
v -30.9078000000000017 109.4180000000000064 2.8179599999999998
vn -0.1229137453941354 -3.1528078834127458 0.0022951262435126
v -32.1760999999999981 109.4620000000000033 -2.1374800000000000
vn -0.1231003417651096 -3.1330552881501417 0.0030350236117681
v -30.9051000000000009 109.4129999999999967 3.7723900000000001
vn -0.1082909934347911 -3.1457379666927308 -0.0095399667075476
v -30.9073999999999991 109.4170000000000016 4.5807000000000002
vn -0.1222362124686902 -3.1365598565454871 0.0126890553066740
v -32.1835999999999984 109.4579999999999984 -3.0900799999999999
vn -0.1226193248604105 -3.1422715607095908 0.0074128726690684
v -30.9045999999999985 109.4120000000000061 -2.2574299999999998
vn -0.1229134854530169 -3.1378282900648591 0.0114289209867152
v -30.9009000000000000 109.4060000000000059 -3.5306799999999998
vn -0.1011501755287939 -3.1363298220947247 -0.0138429713062043
v -32.1822999999999979 109.4579999999999984 4.4738199999999999
vn -0.1218200927395729 -3.1400815014187025 0.0112017610916825
v -30.8996999999999993 109.4039999999999964 -4.2596800000000004
vn -0.1230416166074451 -3.1404468677957817 0.0123422665953893
v -32.1901000000000010 109.4539999999999935 -4.3385300000000004
vn -0.1132485191495501 -3.1360529138280993 0.0091977323990295
v -32.2049999999999983 109.4449999999999932 -6.4577000000000000
vn -0.1119164068867955 -3.1395913659036072 0.0062088567731199
v -31.3187999999999995 109.4110000000000014 -7.6239600000000003
vn -0.0562609694446022 -1.5659889213857272 0.0029025707863579
v -32.2094999999999985 109.4429999999999978 -7.6239600000000003
vn -0.1105075887739904 -3.1418721829818619 0.0030009604931715
v -30.8973000000000013 109.3990000000000009 -6.3292099999999998
vn -0.0553708713363460 -1.5683442112760024 0.0033504101942448
v -30.8954999999999984 109.3960000000000008 -7.6239600000000003
vn -0.1191939000806723 -3.1393283523515909 0.0038355435621984
v -30.9112500000000026 109.4235000000000042 7.2255950000000002
vn -0.2064518987077164 -6.2795446310712686 0.0365417186172576
v -31.2589596473423725 109.4367044517525471 7.2277435355258710
vn -0.1084727025146481 -3.1397190446498633 -0.0005044712443691
v -32.1806249999999991 109.4593749999999943 2.8048324999999998
vn -0.2267879437162760 -6.2790790105856846 0.0060355593662778
v -31.6294531339753107 109.4400837689325954 1.9671048654913474
vn -0.2102479808078577 -6.2796137908735918 0.0103675918310406
v -31.4559901803160606 109.4334466279478306 2.4728063853749473
vn -0.0870090191581047 -3.1402241710369454 0.0320310366650996
v -32.1763499999999993 109.4619999999999891 7.2132050000000003
vn -0.1750043276665270 -6.2804264791559437 0.0634985985678028
v -31.5605589451768047 109.4409998881428976 6.8271518325371963
vn -0.1847245824923445 -6.2802493464037319 0.0478062449192200
v -31.3997213393572743 109.4319986468558170 6.3931070959296497
vn -0.0920221007375769 -3.1401087600616839 0.0290139356802859
v -30.9075500000000005 109.4170000000000016 6.2633950000000000
vn -0.0967043581431594 -3.1398904674372483 0.0241120215168752
v -31.5758749999999999 109.4495000000000005 7.6239600000000003
vn -0.2406327827496279 -6.2785356420599996 0.0204747677537848
v -31.7001092128097852 109.4297556758480283 -5.6775677643534586
vn -0.2456619820730715 -6.2783699028116153 0.0071008149565162
v -31.2185030825634016 109.4105432419882220 -5.7068051792877164
vn -0.0813702760923805 -3.1404798026952232 -0.0191399322183321
v -30.9076500000000003 109.4175000000000040 1.3214550000000000
vn -0.1805003316072467 -6.2805225969340288 0.0102813488457682
v -31.3071364111050237 109.4314406045472197 0.3934452873355072
vn -0.2039202691932990 -6.2798465081265036 0.0161113622020927
v -31.8129031837848046 109.4441118425924770 6.0605256024556944
vn -0.2098163810115418 -6.2796551093382487 0.0055160178865260
v -31.4446349020283478 109.4309917996178854 -0.9079572652948195
vn -0.1012290714357784 -3.1399509603165412 0.0079679731008062
v -30.9057499999999976 109.4140000000000015 -0.8450865000000001
vn -0.1023495072244109 -3.1399155902990228 0.0074760512681785
v -32.1854999999999976 109.4565000000000055 6.2884650000000004
vn -0.2102388181286886 -6.2796577323530212 -0.0035744566214723
v -31.7852888335053620 109.4422076395479451 5.5787997684038704
vn -0.2279612715538431 -6.2790026779743737 -0.0126653680746765
v -31.3475701897348067 109.4316891200351165 3.4245482675035115
vn -0.0994675604231205 -3.1400017149814938 0.0097478837855554
v -30.9067499999999988 109.4159999999999968 2.3196599999999998
vn -0.1176636358717360 -3.1393661571084186 -0.0118237678056205
v -32.1812499999999986 109.4590000000000032 -1.2896905000000003
vn -0.2393345295060663 -6.2786080961433059 -0.0084994345876186
v -31.3204491973415848 109.4283527014291053 -1.7489231985706015
vn -0.2332674278542989 -6.2787326001619954 0.0118542116338173
v -31.4415162434757853 109.4335853967667020 3.8436659123335883
vn -0.2094042617851193 -6.2796318534276141 -0.0131633202686915
v -31.7391043358866547 109.4455908984736965 4.1706171888994170
vn -0.2267103418360781 -6.2787687800163621 0.0156239834338482
v -31.2444429480022876 109.4298295138394508 4.1890456407455208
vn -0.1221484865543922 -3.1391851319728135 0.0141723298385092
v -32.1798500000000018 109.4599999999999937 -2.6137800000000002
vn -0.2444894655663959 -6.2783760460102469 0.0248602338609283
v -31.7579745986868041 109.4442349655887199 -2.4705406465106119
vn -0.2442831064522641 -6.2784016544543366 0.0148905117454245
v -31.3293526156876396 109.4286186376274230 -2.2360443248645496
vn -0.1223014655801765 -3.1391779674104372 0.0144375043250250
v -30.9027499999999975 109.4090000000000060 -2.8940549999999998
vn -0.1153794372504622 -3.1394480696936795 -0.0121578818424898
v -30.9064499999999995 109.4155000000000086 3.2951750000000000
vn -0.1228154051163294 -3.1386204920119454 0.0013075941595228
v -30.9045999999999985 109.4120000000000061 -1.8862600000000000
vn -0.2038627309699500 -6.2798139942823772 -0.0270416029084377
v -31.3560448339225530 109.4295003661276979 4.9087591827942960
vn -0.2112016171876618 -6.2796122748491952 -0.0162137983138249
v -31.7200734045343289 109.4410869382328571 5.1249538948570024
vn -0.1370640965667403 -3.1385647308981159 0.0151414822302129
v -30.9062500000000000 109.4149999999999920 4.1765450000000000
vn -0.1219260150999219 -3.1392138629405517 0.0086446114402983
v -30.9003000000000014 109.4050000000000011 -3.8951799999999999
vn -0.2459666694625267 -6.2783376620530689 0.0197065139708999
v -31.3430047357452572 109.4223208435897305 -3.8598808800016062
vn -0.0987153711484452 -3.1397390137952970 0.0151300967786892
v -30.9082500000000024 109.4184999999999945 0.3232335000000000
vn -0.2041230439107480 -6.2798143241578899 -0.0237069698304122
v -31.7932995030408172 109.4444410020239502 4.7054078736247442
vn -0.1019943634253215 -3.1399000768328085 -0.0150846838480284
v -30.9057999999999993 109.4140000000000015 5.1401300000000001
vn -0.1122387260682339 -3.1395696638825736 0.0104496453624905
v -32.1841999999999970 109.4574999999999960 1.1585690000000000
vn -0.1233180923195100 -3.1391538188537251 0.0105036889815037
v -32.1868499999999997 109.4559999999999889 -3.7143050000000004
vn -0.1226180546814589 -3.1391669859759199 0.0141364873217163
v -32.1932000000000045 109.4519999999999982 -4.8128650000000004
vn -0.2455783679283290 -6.2783192376609316 0.0285130936964187
v -31.4518154288927150 109.4233887558904854 -4.7388383325188439
vn -0.1231898867737045 -3.1391410237237247 0.0149089849268230
v -30.8981999999999992 109.4009999999999962 -4.8752449999999996
vn -0.1041323137069529 -3.1398577471905487 -0.0073582552125960
v -32.1850500000000039 109.4564999999999912 5.1241500000000002
vn -0.1162148809972496 -3.1394119710294364 0.0138142964828889
v -32.2006500000000031 109.4474999999999909 -5.8724500000000006
vn -0.2278241649356018 -6.2790183392305474 0.0196611127587757
v -31.7416715803289655 109.4288440032850360 -6.2721410519211132
vn -0.1127944042769758 -3.1395617465473231 0.0058191983883752
v -31.7641500000000008 109.4270000000000067 -7.6239600000000003
vn -0.1126559406965381 -3.1395665757955884 0.0058950813934695
v -32.2072499999999948 109.4440000000000026 -7.0408299999999997
vn -0.1165545112094618 -3.1394288796160952 -0.0018570366427968
v -30.8969999999999985 109.3984999999999985 -5.9100099999999998
vn -0.1099810205752446 -3.1396595215250755 0.0068270790778647
v -30.8963999999999999 109.3975000000000080 -6.9765850000000000
vn -0.1634271066306509 -6.2809953650456078 -0.0264114417675837
v -31.3009124574755901 109.4297506774681068 0.9182072979406575
vn -0.1916369089638124 -6.2801037295297091 0.0313726188868865
v -31.8455457026150377 109.4456018870369434 6.4757332090229411
vn -0.1999087461335288 -6.2799761502120983 0.0187931449814637
v -31.3145739893385198 109.4279959103107700 -0.5156563779720597
vn -0.2022035814929707 -6.2798861027962989 0.0043267663246285
v -31.2062460026656829 109.4274323415967842 2.8890716374295056
vn -0.2357383394572884 -6.2787205956541632 -0.0226156278868019
v -31.7541685073065842 109.4438455048533996 -1.5160525274442616
vn -0.2311776442498693 -6.2789018642729122 -0.0175685990676222
v -31.7947994194122820 109.4438003300261784 -1.0997215192772190
vn -0.2250295745589641 -6.2791231190210137 0.0197516077459190
v -31.8374873306313013 109.4463402363099078 1.5296565010247711
vn -0.2464833320554826 -6.2783094502823484 0.0221561864098134
v -31.7937862922483632 109.4411132885245479 -3.5419258561312330
vn -0.2486805168300799 -6.2782145795412081 0.0234257036628631
v -31.3513224039060781 109.4169815556526117 -5.2540165503543532
vn -0.2252704862516670 -6.2791343062210689 0.0119567912958249
v -31.7530541073158865 109.4271871034666077 -7.3079409594245028
vn -0.2083108736122551 -6.2797221080118231 0.0076429404712078
v -31.7380738142060643 109.4442917975073328 3.0287360266220911
vn -0.1136458684372827 -3.1395354584484130 -0.0024744335915260
v -32.1799499999999981 109.4597499999999997 2.2980350000000000
vn -0.1742218178127473 -6.2804451035214699 0.0638244601920599
v -31.8113405555771607 109.4520490610331080 7.2291562375357925
vn -0.2107900665294143 -6.2795440102613806 0.0264079747726314
v -31.3607536855588620 109.4278282600745058 5.9084158997893041
vn -0.1798364416531077 -6.2806008398899245 -0.0069899411380983
v -31.7306442206093031 109.4426891813494080 0.5424571339193276
vn -0.2125604752578078 -6.2795532498481998 0.0009858790787332
v -31.7849522336678199 109.4425193917673624 -0.6757120086491420
vn -0.2205243830002540 -6.2792691112939067 -0.0080512026369293
v -31.3362246382741070 109.4272032665412127 -1.2564665337375858
vn -0.1108137553501997 -3.1383768949868358 0.0013471651223271
v -30.9048874999999974 109.4125000000000085 -1.3475891250000001
vn -0.1147862386450567 -3.1394779544333913 -0.0102430256630050
v -32.1838249999999988 109.4575000000000102 -0.8657957500000002
vn -0.1182320004115512 -3.1393461342297231 -0.0114607668392160
v -32.1786749999999984 109.4604999999999961 -1.7135852499999999
vn -0.2418689612592188 -6.2785013853601779 -0.0043729575444621
v -31.7685435697862637 109.4459734003061868 -1.9819296868166050
vn -0.2446891747933905 -6.2783600627400018 0.0271560776420206
v -31.7818167230329571 109.4428828289967015 -2.9734952054490962
vn -0.2458208862422017 -6.2783332787067012 0.0226680351251195
v -31.7397783881935389 109.4368346569250718 -4.2051800362451335
vn -0.1122387260682416 -3.1395696638825732 0.0104496453624933
v -32.1818499999999972 109.4587499999999949 1.5593694999999999
vn -0.1001522689217173 -3.1343803037659175 0.0003926717659963
v -32.1865499999999969 109.4562499999999972 0.7577684999999981
vn -0.2456059683265055 -6.2783337025066279 0.0245060478554234
v -31.8119148286682147 109.4356848021707691 -5.1245328375966412
vn -0.2214893865533817 -6.2792666945113824 0.0127411097979330
v -31.3053727799050137 109.4125253780575946 -6.6321586279777271
vn -0.1976651109012102 -6.2800189866891003 0.0260365314215781
v -31.2325940667245092 109.4268464351559231 -0.0609092405480967
vn -0.2445853497942604 -6.2783742552531514 0.0241058365702477
v -31.2092169930257413 109.4157321297119267 -4.3369486818713705
vn -0.2454374872046847 -6.2783290478300247 0.0275829827056261
v -31.8263177565221191 109.4380765173322345 -4.7250648460509872
vn -0.2228357847129644 -6.2792190718208456 0.0128792919190285
v -31.3230274099351185 109.4120382700005507 -7.1819357044348822
vn -0.2459632512342207 -6.2783145946520840 0.0259828036798616
v -31.3469002760931481 109.4245760512226155 -3.2697593298230196
vn -0.2246098614916785 -6.2791570942208326 0.0124019885656558
v -31.7372105450356301 109.4275633300825774 -6.8189588769580753
vn -0.1991413715762607 -6.2799380192450247 -0.0337410061186575
v -31.4254341862950390 109.4338007128921930 4.5112334791707580
vn -0.2022226954071210 -6.2798497178639847 -0.0014914131087577
v -31.7519956054695740 109.4417623153957635 1.0724908137255535
vn -0.1909695515756959 -6.2802617275437527 0.0129368072190469
v -31.6816297191195204 109.4409066365894745 -0.0847498926916196
vn -0.2171217573056333 -6.2794153584101888 0.0120189556209706
v -31.2242820931256659 109.4254130762397921 1.9724172351954405
vn -0.2202240655928162 -6.2792864983311185 0.0057057909869524
v -31.7958676953997106 109.4476682830867276 3.6482886227310312
vn -0.2444696007331542 -6.2783619301790070 0.0286991768806112
v -31.3175479490953173 109.4260628302988749 -2.6978393814220514
vn -0.2255745347492608 -6.2791329569405887 -0.0011384544057784
v -31.8857698030901773 109.4489862220789576 2.4438859520499401
vn -0.1970515722601079 -6.2799775126035113 -0.0094206212252326
v -31.2526122209459665 109.4254306722116610 1.5295229168029447
# 126 vertices, 0 vertices normals

f 2//2 34//34 35//35
f 98//98 35//35 43//43
f 94//94 44//44 45//45
f 49//49 50//50 88//88
f 51//51 17//17 48//48
f 117//117 63//63 124//124
f 68//68 22//22 59//59
f 59//59 119//119 58//58
f 79//79 67//67 52//52
f 44//44 80//80 81//81
f 10//10 45//45 84//84
f 32//32 112//112 85//85
f 34//34 1//1 35//35
f 43//43 35//35 1//1
f 36//36 97//97 125//125
f 54//54 122//122 5//5
f 2//2 35//35 40//40
f 40//40 98//98 8//8
f 8//8 87//87 40//40
f 41//41 99//99 42//42
f 40//40 41//41 2//2
f 6//6 98//98 43//43
f 98//98 40//40 35//35
f 10//10 94//94 45//45
f 94//94 111//111 44//44
f 45//45 44//44 11//11
f 13//13 121//121 100//100
f 48//48 52//52 99//99
f 15//15 101//101 121//121
f 88//88 50//50 16//16
f 8//8 51//51 87//87
f 18//18 4//4 123//123
f 38//38 37//37 122//122
f 96//96 38//38 89//89
f 104//104 91//91 101//101
f 105//105 106//106 90//90
f 90//90 56//56 102//102
f 57//57 59//59 58//58
f 59//59 57//57 21//21
f 20//20 60//60 61//61
f 60//60 23//23 107//107
f 62//62 61//61 124//124
f 53//53 89//89 64//64
f 57//57 53//53 21//21
f 20//20 61//61 106//106
f 62//62 24//24 65//65
f 66//66 14//14 67//67
f 21//21 68//68 59//59
f 114//114 27//27 69//69
f 69//69 25//25 70//70
f 108//108 114//114 70//70
f 16//16 71//71 113//113
f 100//100 47//47 86//86
f 66//66 67//67 72//72
f 26//26 58//58 72//72
f 109//109 74//74 92//92
f 110//110 100//100 120//120
f 37//37 92//92 126//126
f 117//117 107//107 93//93
f 70//70 93//93 108//108
f 17//17 79//79 52//52
f 52//52 67//67 14//14
f 11//11 44//44 81//81
f 44//44 9//9 80//80
f 81//81 80//80 29//29
f 31//31 82//82 95//95
f 95//95 30//30 116//116
f 83//83 95//95 118//118
f 82//82 30//30 95//95
f 45//45 11//11 84//84
f 32//32 84//84 11//11
f 30//30 33//33 116//116
f 85//85 116//116 33//33
f 120//120 100//100 86//86
f 41//41 87//87 48//48
f 101//101 88//88 121//121
f 96//96 89//89 53//53
f 55//55 90//90 91//91
f 91//91 90//90 102//102
f 117//117 93//93 70//70
f 94//94 78//78 77//77
f 116//116 118//118 95//95
f 112//112 116//116 85//85
f 97//97 3//3 125//125
f 98//98 6//6 39//39
f 98//98 39//39 8//8
f 87//87 41//41 40//40
f 99//99 7//7 42//42
f 41//41 42//42 2//2
f 111//111 9//9 44//44
f 46//46 86//86 12//12
f 7//7 99//99 14//14
f 99//99 41//41 48//48
f 101//101 49//49 88//88
f 49//49 102//102 50//50
f 103//103 50//50 102//102
f 121//121 88//88 113//113
f 15//15 121//121 13//13
f 87//87 51//51 48//48
f 99//99 52//52 14//14
f 123//123 4//4 96//96
f 96//96 53//53 123//123
f 4//4 36//36 96//96
f 38//38 122//122 54//54
f 37//37 38//38 125//125
f 15//15 104//104 101//101
f 104//104 55//55 91//91
f 101//101 91//91 49//49
f 55//55 105//105 90//90
f 105//105 20//20 106//106
f 90//90 106//106 56//56
f 49//49 91//91 102//102
f 102//102 56//56 103//103
f 106//106 61//61 62//62
f 60//60 107//107 61//61
f 63//63 117//117 25//25
f 24//24 62//62 124//124
f 18//18 123//123 58//58
f 57//57 123//123 53//53
f 89//89 19//19 64//64
f 53//53 64//64 21//21
f 106//106 62//62 56//56
f 56//56 62//62 65//65
f 56//56 65//65 103//103
f 14//14 66//66 73//73
f 114//114 69//69 70//70
f 47//47 12//12 86//86
f 12//12 47//47 71//71
f 7//7 14//14 73//73
f 73//73 66//66 22//22
f 58//58 26//26 18//18
f 3//3 92//92 37//37
f 92//92 3//3 109//109
f 74//74 110//110 120//120
f 110//110 13//13 100//100
f 92//92 74//74 120//120
f 107//107 23//23 93//93
f 75//75 93//93 23//23
f 93//93 75//75 108//108
f 28//28 108//108 75//75
f 28//28 115//115 108//108
f 111//111 76//76 9//9
f 77//77 115//115 111//111
f 94//94 10//10 78//78
f 77//77 78//78 114//114
f 79//79 26//26 72//72
f 31//31 95//95 83//83
f 83//83 118//118 29//29
f 112//112 81//81 118//118
f 81//81 112//112 11//11
f 29//29 118//118 81//81
f 11//11 112//112 32//32
f 48//48 17//17 52//52
f 89//89 54//54 19//19
f 121//121 47//47 100//100
f 113//113 71//71 47//47
f 25//25 117//117 70//70
f 77//77 114//114 108//108
f 115//115 28//28 76//76
f 111//111 115//115 76//76
f 124//124 61//61 107//107
f 22//22 66//66 119//119
f 113//113 88//88 16//16
f 89//89 38//38 54//54
f 124//124 107//107 117//117
f 126//126 86//86 46//46
f 77//77 108//108 115//115
f 77//77 111//111 94//94
f 114//114 78//78 27//27
f 79//79 72//72 67//67
f 118//118 116//116 112//112
f 119//119 72//72 58//58
f 119//119 66//66 72//72
f 92//92 120//120 126//126
f 22//22 119//119 59//59
f 96//96 36//36 125//125
f 121//121 113//113 47//47
f 125//125 3//3 37//37
f 122//122 37//37 126//126
f 24//24 124//124 63//63
f 123//123 57//57 58//58
f 96//96 125//125 38//38
f 5//5 122//122 126//126
f 86//86 126//126 120//120
f 5//5 126//126 46//46
# 185 faces, 0 coords texture

# End of File
